<?xml version="1.0" encoding="UTF-8" standalone="no"?>
<!DOCTYPE svg PUBLIC "-//W3C//DTD SVG 20010904//EN"
              "http://www.w3.org/TR/2001/REC-SVG-20010904/DTD/svg10.dtd">

<svg xmlns="http://www.w3.org/2000/svg"
     width="116.586mm" height="75.4382mm"
     viewBox="0 0 1377 891">
  <path id="WIP"
        fill="none" stroke="black" stroke-width="1"
        d="M 1252.18,650.93
           C 1252.18,650.93 1279.88,651.09 1279.88,651.09
             1278.22,647.47 1259.88,643.44 1254.97,632.91
             1251.19,626.44 1248.93,645.86 1252.18,650.93 Z
           M 391.75,456.38
           C 393.88,452.38 400.53,450.00 404.00,449.81
             406.96,450.00 418.65,446.96 425.70,451.13
             443.25,464.69 442.50,474.06 449.62,479.31
             451.16,480.38 457.16,484.47 459.78,484.50
             460.27,484.44 460.22,485.80 458.38,485.88
             444.69,486.06 440.81,489.09 439.09,493.55
             435.70,502.26 437.04,508.87 435.36,510.73
             430.66,514.31 424.19,516.06 421.36,523.27
             419.91,528.25 432.97,522.91 434.78,526.43
             435.69,527.50 439.97,525.22 436.35,531.00
             435.47,532.94 433.31,533.91 430.61,533.83
             429.13,533.80 423.31,533.67 420.04,534.78
             417.62,535.52 414.61,535.33 412.39,537.26
             411.33,538.14 409.33,544.78 405.61,546.83
             410.51,546.82 413.62,541.67 422.24,540.99
             426.00,541.27 430.84,541.08 426.10,544.07
             424.28,545.45 421.97,546.45 419.50,547.04
             415.91,548.02 416.78,550.08 418.91,551.09
             419.67,551.38 426.18,551.47 427.22,551.09
             434.16,547.87 429.56,545.49 442.48,538.61
             445.96,537.00 454.30,542.35 454.06,548.03
             453.70,550.96 458.30,551.13 463.09,547.75
             467.26,542.26 477.04,529.30 491.62,525.69
             492.59,529.12 492.41,530.44 495.75,530.44
             500.16,530.25 499.96,527.98 505.50,529.62
             509.11,532.27 510.29,533.78 515.44,534.62
             516.39,534.72 519.96,534.38 520.50,534.12
             521.89,533.24 520.61,530.72 522.94,531.38
             524.09,531.72 523.77,533.13 528.12,533.19
             528.12,533.19 534.89,533.16 534.89,533.16
             536.80,532.91 537.76,530.78 538.00,528.50
             538.01,526.56 534.77,528.02 534.88,525.75
             534.91,524.72 535.33,522.77 535.02,521.29
             534.64,519.69 532.24,521.82 523.62,517.88
             520.84,516.77 520.98,515.88 522.81,515.19
             527.60,513.62 530.29,514.24 535.88,510.56
             537.96,509.24 540.47,507.33 542.06,504.31
             542.44,503.62 543.08,499.76 543.06,498.75
             543.08,495.61 545.87,497.68 546.62,498.06
             547.27,498.51 546.64,500.22 549.88,500.00
             554.34,499.86 555.63,498.16 556.19,499.62
             556.84,501.08 559.52,501.05 559.19,505.94
             558.73,507.66 566.06,504.47 566.06,502.95
             566.06,502.95 565.88,499.56 565.88,499.56
             565.56,494.89 565.82,495.07 568.88,498.25
             574.84,504.09 579.49,500.09 590.00,501.44
             591.10,501.79 593.80,503.84 595.19,506.06
             596.78,508.13 613.65,501.78 645.75,479.00
             647.35,476.30 650.13,471.96 657.50,468.62
             659.48,467.83 663.78,468.78 665.12,470.25
             666.65,471.61 672.04,470.65 673.62,470.12
             674.78,468.80 677.87,467.18 680.75,465.88
             681.87,465.62 680.76,462.33 681.76,461.82
             682.88,460.86 683.84,459.27 687.50,459.12
             687.50,459.12 690.92,459.09 690.92,459.09
             691.81,459.14 694.92,457.75 696.00,456.12
             696.31,455.47 696.42,454.17 694.98,452.98
             694.61,452.77 690.89,453.55 688.82,449.64
             688.16,448.86 685.20,449.08 685.09,448.64
             679.78,442.91 685.58,442.58 688.27,445.45
             693.31,449.24 720.09,443.43 725.27,440.73
             726.00,440.09 727.40,436.91 730.73,436.36
             748.66,435.53 743.56,440.97 754.25,436.50
             755.41,436.16 770.34,447.28 777.04,447.13
             776.29,449.82 778.80,455.00 782.81,458.81
             783.62,459.47 784.24,459.44 785.38,458.69
             788.91,454.79 790.98,456.48 791.50,455.06
             791.87,454.27 793.16,453.30 793.94,455.12
             794.41,457.30 804.44,463.15 804.62,458.81
             804.83,456.47 806.03,460.42 810.96,459.17
             812.23,458.80 812.50,457.23 811.93,456.12
             809.80,453.77 815.88,455.92 816.48,455.48
             817.20,455.00 817.66,451.42 821.43,451.74
             821.92,451.78 827.82,451.27 830.31,452.91
             831.72,453.91 836.80,455.60 831.86,451.72
             830.73,450.75 827.91,451.25 824.01,445.07
             821.96,443.86 820.53,444.76 819.98,447.97
             819.57,449.67 817.69,449.27 816.19,447.38
             816.19,447.38 809.59,438.97 809.59,438.97
             808.18,437.67 802.73,440.31 801.84,438.91
             801.52,438.38 794.09,431.30 793.96,425.57
             794.07,419.31 790.49,414.78 789.36,413.36
             789.36,413.36 780.73,405.82 780.73,405.82
             761.09,392.22 776.61,374.65 784.44,387.62
             790.75,400.28 794.72,398.53 795.81,399.75
             801.38,407.41 795.25,407.81 803.65,418.09
             825.43,442.83 823.78,427.35 830.81,436.19
             834.73,442.29 837.87,443.18 839.04,444.91
             844.19,449.53 857.39,453.16 857.65,453.04
             850.91,450.43 843.61,444.52 832.57,431.57
             832.57,431.57 823.56,421.28 823.56,421.28
             818.03,412.34 827.94,403.94 835.60,411.65
             860.94,425.69 853.81,427.88 864.16,431.13
             866.25,432.26 878.30,430.22 888.56,438.94
             907.91,458.18 905.94,464.19 915.84,467.05
             933.04,473.74 948.09,486.09 955.40,490.65
             949.35,486.04 925.17,467.78 921.62,460.25
             918.78,455.22 907.45,437.82 899.55,396.91
             888.36,386.55 875.27,405.09 870.91,405.55
             867.44,406.07 856.18,407.96 852.64,405.91
             849.96,404.43 833.87,394.04 827.25,385.38
             825.91,383.65 815.12,374.12 813.75,357.62
             813.67,356.42 812.19,339.84 817.12,322.62
             819.09,316.39 823.65,300.78 831.38,299.50
             838.43,298.70 856.74,315.61 865.31,324.44
             864.87,321.39 865.04,318.09 858.88,311.00
             857.73,309.78 848.87,302.16 843.71,290.99
             841.31,288.62 834.31,285.19 834.35,267.90
             840.83,265.74 860.09,252.48 863.55,249.18
             866.00,247.06 877.81,238.19 884.00,217.27
             886.18,197.27 890.64,170.45 901.82,160.45
             907.70,155.57 908.13,152.09 914.55,161.91
             923.50,174.88 923.26,178.48 928.18,190.64
             937.82,221.18 936.09,227.45 933.45,246.73
             932.69,252.19 930.69,255.19 932.64,263.55
             938.00,280.81 944.68,278.21 937.52,299.78
             936.43,302.70 935.83,303.48 931.57,309.13
             947.27,293.55 951.18,275.55 962.27,308.91
             964.12,314.75 982.18,344.45 984.64,370.00
             984.00,416.75 985.12,434.62 965.18,462.64
             972.27,464.45 988.26,439.19 995.90,429.09
             997.76,426.14 999.06,426.69 1000.99,411.64
             998.56,367.69 1014.62,397.81 1022.36,413.36
             1029.36,429.00 1037.00,440.00 1047.55,453.55
             1061.91,470.64 1058.96,464.77 1051.32,450.77
             1017.00,390.67 988.33,320.33 917.59,157.04
             916.31,154.12 909.12,141.75 907.73,143.18
             903.45,141.82 836.38,218.88 808.91,242.00
             785.81,257.50 777.59,257.75 722.78,256.74
             731.83,260.83 757.78,261.08 759.43,265.48
             760.00,267.65 759.65,277.65 764.00,278.88
             765.39,279.43 768.13,279.48 770.56,278.88
             771.84,278.44 776.29,277.22 776.31,282.12
             775.83,298.83 769.43,303.35 774.38,314.44
             775.31,316.94 776.62,324.38 781.69,327.75
             783.25,329.00 782.81,332.72 782.06,334.25
             781.38,335.64 775.87,338.44 776.44,352.56
             777.09,364.35 785.73,390.00 764.27,363.09
             758.09,354.73 762.36,339.82 757.81,327.44
             756.52,323.74 752.69,291.50 735.56,292.75
             732.12,292.12 729.81,281.69 711.88,271.75
             700.69,268.38 692.75,264.88 681.88,252.81
             677.88,248.69 642.81,247.38 626.31,249.69
             614.50,251.88 601.12,254.12 574.75,248.19
             559.94,246.19 559.12,250.44 544.56,252.50
             518.75,255.38 483.06,255.75 521.25,273.56
             530.09,277.91 535.09,290.09 505.73,293.00
             498.91,293.83 478.87,300.83 463.73,289.00
             452.45,278.55 447.45,283.27 449.27,246.45
             447.82,240.27 437.36,237.45 435.07,228.87
             427.45,207.45 443.45,205.91 456.91,211.00
             464.45,212.36 481.18,215.73 489.55,222.00
             494.38,225.44 499.62,226.69 517.12,234.56
             510.25,230.81 498.44,224.03 486.82,211.09
             481.27,207.64 455.42,202.42 440.30,187.42
             394.38,134.00 305.12,34.00 299.45,30.64
             248.50,78.25 206.36,262.18 181.75,323.25
             170.25,349.88 137.00,416.27 119.62,445.00
             134.45,434.91 175.27,371.18 189.62,364.00
             193.64,362.45 252.48,428.35 257.06,435.06
             262.91,443.48 264.43,445.43 255.38,437.00
             253.56,435.18 222.12,409.69 198.50,385.88
             191.38,377.50 190.00,375.94 190.50,390.62
             193.00,422.38 211.12,427.25 212.09,447.36
             212.25,458.69 215.15,471.14 205.27,507.64
             202.44,519.69 206.69,547.88 210.00,552.00
             211.35,553.57 226.57,620.34 285.41,651.09
             285.41,651.09 258.40,651.04 240.50,651.00
             231.63,650.98 226.27,644.73 226.27,644.73
             225.71,641.26 215.38,639.94 211.50,637.88
             208.31,636.34 201.91,636.04 200.44,637.00
             197.13,639.96 193.22,643.35 190.88,642.75
             190.88,642.75 189.25,639.69 189.25,639.69
             187.25,636.38 176.28,639.56 176.91,637.75
             177.09,636.59 176.31,630.62 179.78,626.64
             180.25,625.97 180.09,617.62 179.07,615.37
             180.69,614.36 180.82,603.78 179.15,603.80
             177.00,603.11 177.57,600.55 179.52,599.13
             180.76,598.36 179.71,591.29 178.17,588.83
             177.31,587.78 178.59,568.56 178.35,563.35
             178.27,560.91 176.29,559.24 176.07,550.71
             175.33,545.47 172.16,544.71 173.02,542.22
             173.30,541.66 176.42,542.36 176.04,541.22
             169.96,532.73 170.93,530.82 177.73,540.89
             181.81,547.03 186.00,549.88 190.33,556.82
             191.44,558.64 192.35,560.70 192.25,565.31
             192.09,579.22 188.35,633.65 188.02,638.66
             188.93,639.20 188.72,639.06 189.10,639.48
             189.36,639.88 189.24,639.52 189.96,641.05
             189.96,641.05 191.96,603.52 191.96,603.52
             192.81,586.38 194.28,572.96 194.55,571.36
             194.97,568.12 194.34,561.06 197.91,561.25
             199.02,561.04 199.62,558.24 199.94,556.28
             200.27,555.22 200.17,553.17 200.00,552.06
             199.12,551.73 198.96,551.98 198.96,551.02
             199.43,548.34 197.59,549.02 196.11,548.95
             195.81,548.69 195.66,541.75 196.16,541.02
             197.59,539.53 197.27,537.30 196.98,537.05
             195.55,536.02 194.53,536.49 194.14,537.12
             193.66,538.02 193.67,546.67 193.94,548.75
             190.87,549.16 190.94,548.97 187.72,543.09
             187.33,542.80 183.31,533.09 178.12,527.75
             176.80,526.30 178.66,518.25 176.91,517.97
             176.91,517.97 173.97,518.02 173.97,518.02
             172.48,518.04 172.84,517.06 173.95,517.05
             173.95,517.05 174.99,516.95 174.99,516.95
             175.45,516.82 174.12,515.71 178.94,516.02
             179.69,516.77 179.88,526.81 180.09,527.07
             182.64,528.84 186.08,536.02 188.22,540.44
             188.44,540.75 191.09,545.76 192.22,547.43
             192.47,547.81 192.85,547.83 192.89,547.81
             193.05,547.72 189.23,540.48 189.12,540.06
             187.80,536.56 185.09,531.02 181.97,526.22
             181.27,525.29 179.67,516.09 180.20,514.14
             181.40,513.93 181.40,514.18 181.04,506.42
             180.94,502.16 180.56,498.66 180.12,493.78
             179.09,485.78 174.92,488.62 168.03,483.47
             168.16,482.12 170.81,482.97 170.84,481.31
             171.09,479.48 171.28,478.56 172.97,477.56
             172.93,477.09 173.98,477.42 174.02,476.98
             173.84,475.59 173.89,473.69 174.08,472.36
             174.20,471.86 175.10,472.40 174.97,471.84
             174.88,471.36 175.60,462.76 175.23,460.94
             174.93,458.78 171.28,452.80 166.06,452.53
             157.80,452.24 156.78,453.00 155.25,455.97
             154.00,458.28 151.34,457.47 149.31,460.28
             147.87,463.82 149.99,464.94 151.19,465.37
             152.42,467.18 147.53,469.64 146.49,465.80
             146.20,464.18 130.88,461.78 125.44,463.20
             114.10,466.55 112.18,473.55 112.00,480.17
             111.70,480.16 105.39,479.22 105.13,481.57
             104.17,490.96 101.59,492.87 112.36,493.31
             114.18,493.11 116.98,493.27 112.33,493.78
             101.55,491.76 109.60,499.99 105.25,504.39
             104.09,507.78 104.09,521.00 108.99,518.48
             109.78,517.84 110.03,525.82 108.81,526.97
             106.00,532.34 102.66,533.25 103.83,534.44
             104.28,534.75 104.64,536.01 109.54,531.11
             111.33,529.61 111.67,531.61 112.01,534.99
             112.67,546.27 113.76,544.64 125.30,547.01
             125.30,547.01 137.84,547.03 137.84,547.03
             137.50,562.38 135.74,564.74 137.94,567.66
             139.31,576.38 138.82,590.83 138.48,595.05
             136.09,604.00 134.61,602.43 133.61,615.22
             132.88,621.38 133.31,628.72 131.09,630.91
             131.29,636.38 131.09,633.80 127.56,632.16
             122.04,629.96 115.61,626.16 113.88,632.91
             112.88,636.59 109.93,633.86 107.17,635.39
             89.30,649.96 88.26,640.26 83.35,644.30
             78.65,648.52 69.52,645.09 67.57,650.91
             67.44,650.91 23.96,651.02 23.96,651.02
             23.96,651.02 47.09,677.64 47.09,677.64
             47.09,677.64 1332.00,677.82 1332.00,677.82
             1332.00,677.82 1355.09,651.09 1355.09,651.09
             1355.09,651.09 1291.16,651.03 1291.16,651.03
             1290.18,651.65 1279.67,634.27 1281.13,633.35
             1280.34,633.02 1281.19,629.03 1281.50,629.12
             1282.78,627.57 1283.17,626.83 1285.84,628.06
             1288.00,631.03 1308.17,640.52 1311.79,639.49
             1309.61,635.22 1306.91,632.83 1316.13,633.78
             1318.91,634.43 1337.32,637.59 1337.57,635.26
             1324.13,629.30 1298.17,597.13 1296.88,591.38
             1292.17,586.09 1297.09,585.43 1298.96,586.09
             1297.91,584.00 1299.67,582.48 1301.91,583.13
             1301.74,583.28 1296.20,579.87 1296.43,576.91
             1294.24,572.89 1297.20,572.33 1299.74,572.74
             1302.91,572.91 1316.27,584.17 1315.52,584.00
             1317.03,584.48 1319.80,585.42 1321.91,584.17
             1320.66,585.21 1283.78,554.74 1285.25,552.56
             1283.42,548.36 1282.73,544.62 1287.56,547.44
             1289.84,544.00 1306.02,547.16 1306.81,548.19
             1307.70,546.78 1274.91,536.09 1257.75,499.75
             1251.88,492.00 1259.91,491.34 1261.70,494.96
             1265.81,494.50 1274.41,503.25 1273.57,502.17
             1268.11,495.52 1274.88,495.72 1277.91,497.52
             1281.59,499.41 1292.03,498.91 1290.17,498.83
             1285.74,497.48 1280.35,490.91 1276.87,484.78
             1264.70,476.22 1242.98,442.16 1242.88,437.25
             1241.89,430.82 1241.12,430.22 1245.81,431.56
             1240.44,430.84 1234.34,403.66 1234.00,389.91
             1231.53,404.97 1225.50,430.81 1217.09,434.18
             1222.19,433.34 1226.94,431.47 1221.91,438.27
             1214.00,458.75 1196.73,488.45 1185.75,494.94
             1187.69,495.53 1193.47,494.50 1195.94,493.50
             1203.97,490.72 1196.68,500.13 1190.87,501.13
             1190.17,499.78 1191.29,504.40 1215.64,514.64
             1217.56,516.88 1208.98,514.24 1207.56,513.44
             1170.09,494.82 1141.88,456.88 1141.81,452.50
             1138.06,445.00 1143.75,446.69 1146.88,448.06
             1151.25,449.19 1167.10,459.54 1166.12,459.88
             1160.25,453.44 1155.12,447.88 1169.81,453.00
             1177.73,455.16 1188.50,454.38 1183.69,453.62
             1164.00,446.45 1123.48,383.75 1126.47,380.14
             1123.56,370.04 1128.27,373.60 1129.97,377.27
             1130.61,380.48 1139.96,384.61 1137.69,382.62
             1125.57,367.91 1115.91,343.57 1114.69,322.50
             1113.81,328.78 1107.69,371.19 1096.50,377.75
             1102.00,375.44 1105.09,375.16 1101.25,382.25
             1097.12,391.38 1072.14,440.74 1057.69,448.56
             1062.50,447.38 1070.00,444.88 1070.44,448.12
             1074.96,442.65 1079.26,448.65 1075.81,450.25
             1073.10,451.78 1066.63,456.14 1067.04,455.91
             1067.17,456.20 1069.52,456.65 1073.35,455.09
             1079.48,450.65 1082.87,453.26 1076.52,459.13
             1069.87,472.83 1049.83,487.74 1034.12,494.50
             1035.12,495.38 1041.81,495.38 1043.19,494.47
             1061.22,484.84 1051.09,495.12 1046.48,498.17
             1041.44,503.00 1035.50,509.00 1020.43,514.65
             1023.74,516.09 1038.91,515.57 1044.36,513.64
             1058.52,507.17 1054.26,514.83 1048.91,519.73
             1041.00,533.91 1026.36,552.91 998.55,569.82
             1000.83,572.61 1029.26,566.96 1035.45,563.27
             1046.70,556.78 1042.12,562.34 1039.64,567.27
             1034.94,579.31 1017.88,604.38 988.73,625.64
             994.12,626.31 1027.75,613.44 1037.09,606.73
             1049.37,595.74 1045.73,605.51 1042.55,608.36
             1038.38,615.75 1037.06,618.44 1029.91,625.78
             1031.78,625.65 1041.39,621.00 1044.87,616.52
             1054.13,605.26 1054.35,608.48 1049.78,619.35
             1048.13,623.04 1047.70,628.65 1040.91,641.27
             1043.70,640.13 1067.43,628.43 1069.18,625.27
             1071.35,622.91 1078.35,617.22 1075.36,626.55
             1073.70,632.83 1067.17,644.35 1068.64,642.55
             1072.96,639.78 1093.31,626.06 1100.36,628.36
             1105.82,630.14 1103.56,650.62 1098.00,650.97
             1098.00,650.97 947.22,651.13 947.22,651.13
             942.69,657.69 931.81,660.31 921.96,660.87
             922.94,659.00 914.75,655.38 913.13,656.30
             911.44,655.69 911.56,660.69 909.00,661.57
             907.44,662.16 906.78,658.97 902.09,658.48
             898.91,658.84 898.69,661.12 896.17,660.96
             896.17,660.96 885.56,660.88 885.56,660.88
             885.16,658.16 879.31,657.47 877.06,657.31
             876.98,657.30 873.32,657.09 871.94,657.30
             869.60,657.80 867.57,660.19 867.20,661.00
             867.20,661.00 860.62,660.94 860.62,660.94
             858.38,658.06 851.31,660.44 849.25,655.56
             846.34,655.27 846.16,657.97 843.88,657.88
             840.93,657.95 840.13,656.42 839.75,656.00
             839.37,655.61 836.92,655.58 836.58,656.02
             832.63,662.24 831.64,656.06 832.25,655.06
             829.20,653.90 827.34,662.18 826.25,653.94
             825.76,651.47 823.31,652.17 822.41,652.01
             822.41,652.01 814.69,652.00 814.69,652.00
             813.51,654.93 810.19,658.08 806.13,658.70
             804.27,659.14 800.36,659.45 798.13,658.91
             796.91,658.62 793.28,654.75 792.58,654.81
             789.66,654.17 785.97,661.88 780.84,654.72
             779.69,652.76 772.20,661.96 765.09,662.06
             765.09,662.06 688.00,661.97 688.00,661.97
             681.60,661.78 682.33,662.84 680.94,659.09
             680.23,657.30 676.19,657.74 675.00,658.09
             674.36,658.53 673.62,660.16 669.09,659.87
             668.00,659.69 668.49,658.63 667.91,658.09
             667.17,657.67 663.50,662.07 659.91,656.04
             659.38,654.78 649.79,661.91 649.30,657.00
             649.46,650.65 644.28,654.66 644.00,650.04
             642.00,647.84 630.19,650.75 623.00,643.82
             618.70,641.26 606.26,646.22 601.18,637.27
             600.09,635.62 597.04,637.61 591.64,634.18
             587.06,629.94 579.84,623.89 577.56,613.78
             567.65,599.04 579.04,608.96 579.62,611.93
             580.38,610.78 582.38,612.07 583.53,612.50
             577.16,608.00 567.57,586.87 565.45,564.18
             563.88,589.44 557.91,600.34 551.56,610.12
             559.43,603.83 555.61,610.13 554.53,612.19
             551.34,619.59 545.57,638.74 534.00,645.18
             526.19,647.16 528.69,644.16 526.00,644.18
             522.62,644.12 510.75,647.03 505.18,646.09
             501.38,645.20 495.40,643.16 491.27,643.27
             487.31,643.78 485.47,646.41 477.35,642.17
             475.12,640.48 462.53,643.02 458.69,638.69
             455.51,635.09 451.73,637.49 448.75,635.69
             441.00,632.96 436.24,629.18 432.38,623.69
             431.48,622.67 430.36,622.31 427.57,623.37
             426.75,623.77 426.20,627.48 423.63,623.75
             415.35,622.91 405.18,608.04 404.36,603.27
             403.49,600.71 400.87,595.73 408.18,602.00
             409.73,603.80 412.82,605.93 416.00,606.64
             412.38,604.11 408.38,597.13 418.82,603.09
             420.33,603.96 426.18,603.80 426.00,603.45
             409.56,589.88 403.75,580.12 396.00,566.00
             391.78,558.50 393.00,559.31 400.36,564.27
             390.96,555.17 388.96,541.30 387.27,531.18
             386.39,539.61 384.04,558.39 379.91,564.82
             374.38,575.25 372.62,582.75 358.00,599.27
             356.09,601.41 358.16,600.59 362.35,600.00
             371.25,598.47 364.84,602.06 363.04,603.52
             368.78,602.80 369.69,603.09 366.57,606.96
             366.25,609.38 364.16,613.69 360.70,612.91
             350.31,604.94 345.30,597.87 335.00,580.19
             332.04,574.04 327.09,562.96 325.57,543.70
             324.06,563.00 321.88,568.28 315.72,575.31
             318.44,574.28 321.34,572.31 318.19,577.56
             317.53,578.56 316.31,583.53 310.06,591.88
             306.41,594.50 298.28,583.59 297.27,581.64
             295.65,578.30 288.57,562.65 280.18,558.73
             270.71,553.93 285.40,552.42 289.73,551.36
             296.84,548.44 282.78,534.03 281.36,532.45
             279.41,530.62 276.12,527.66 271.82,528.00
             268.19,528.28 270.97,518.66 274.36,517.91
             279.41,517.53 274.50,513.59 307.64,513.27
             310.53,512.84 311.25,504.94 318.73,503.36
             342.75,500.00 389.38,488.88 391.88,473.00
             391.25,468.31 384.69,472.38 381.75,466.56
             381.09,464.49 386.96,468.02 391.75,456.38 Z
           M 839.58,655.90M 892.64,368.82
           C 889.73,341.36 893.45,339.36 924.09,314.00
             910.00,322.87 907.26,321.65 901.27,326.73
             880.12,340.94 881.56,352.19 892.64,368.82 Z
           M 927.00,362.38
           C 940.88,384.50 942.25,392.75 933.38,423.50
             940.19,417.75 947.31,402.12 946.69,392.25
             945.31,379.81 936.38,365.94 927.00,362.38 Z
           M 633.84,397.25
           C 632.62,395.22 623.84,406.41 622.56,405.88
             619.25,406.88 615.12,403.16 620.25,399.75
             622.59,397.19 619.51,393.51 616.48,395.20
             612.86,390.30 617.51,386.05 619.86,384.14
             619.33,383.49 615.20,383.44 613.31,384.06
             607.00,386.44 610.97,393.75 609.88,395.00
             602.91,392.96 595.91,407.78 610.88,415.25
             630.17,420.30 637.15,406.35 633.84,397.25 Z
           M 650.12,429.00
           C 655.38,427.94 660.94,430.94 654.75,436.25
             642.94,443.94 643.75,453.50 632.12,458.38
             607.27,449.09 578.45,451.91 552.75,468.50
             547.91,470.87 511.13,464.17 527.62,458.25
             538.39,454.83 533.87,453.26 524.88,452.50
             513.35,451.09 508.22,431.35 506.88,425.12
             505.83,424.09 488.83,409.17 511.00,419.25
             516.00,422.94 532.53,428.12 532.16,424.94
             532.19,423.97 520.75,420.22 530.66,414.44
             528.34,404.44 533.50,404.56 538.50,407.50
             544.96,410.35 560.91,413.35 566.12,422.25
             599.91,438.09 617.00,443.27 650.12,429.00 Z
           M 714.88,387.75
           C 707.69,381.56 691.94,372.94 714.00,363.25
             721.06,355.62 719.75,354.06 715.50,345.88
             720.50,339.38 718.62,338.06 713.62,335.38
             720.19,322.44 705.88,298.19 703.50,300.62
             696.52,306.61 693.04,303.87 691.00,299.38
             689.35,295.61 676.35,282.09 673.88,281.38
             669.09,280.48 664.96,284.57 657.50,275.12
             652.17,269.39 641.78,272.61 632.88,269.75
             639.56,277.69 646.44,293.94 622.00,294.25
             616.91,295.43 609.61,299.57 609.50,303.50
             599.22,305.57 600.17,317.57 597.00,318.62
             592.17,320.17 591.43,332.30 597.88,330.25
             601.61,328.74 602.65,335.30 597.38,337.50
             591.52,340.87 581.87,348.74 559.25,352.25
             539.81,355.00 523.62,378.06 516.38,386.88
             522.31,389.88 548.12,364.94 555.38,363.50
             577.56,362.44 593.56,356.31 599.25,354.88
             602.47,354.09 628.38,354.51 630.25,354.38
             636.56,353.88 641.00,369.94 657.25,370.25
             672.88,374.06 691.13,398.78 693.50,398.88
             699.62,398.19 704.38,393.75 710.12,393.62
             713.31,393.31 720.06,392.25 714.88,387.75 Z
           M 175.99,835.00
           C 175.99,835.00 200.04,862.04 200.04,862.04
             200.04,862.04 1180.83,861.91 1180.83,861.91
             1180.83,861.91 1205.00,835.00 1205.00,835.00
             1205.00,835.00 175.99,835.00 175.99,835.00 Z
           M 297.09,434.45
           C 298.06,448.25 301.75,445.12 304.27,435.64
             312.88,409.25 373.88,393.62 384.18,419.00
             387.38,424.81 410.94,426.00 415.45,407.36
             418.27,395.09 430.55,392.36 434.00,382.55
             435.64,376.91 482.55,365.55 503.00,347.55
             526.91,334.55 521.64,328.91 504.64,315.82
             447.38,292.88 440.25,307.50 421.45,292.27
             418.18,288.18 412.36,288.18 409.09,293.00
             380.88,334.38 403.50,326.25 344.36,348.00
             309.88,368.88 295.88,393.75 297.09,434.45 Z
           M 371.38,387.25
           C 367.62,388.88 366.75,372.62 372.62,373.00
             379.75,373.12 423.75,349.25 422.00,330.25
             420.61,329.37 448.91,324.43 457.75,324.00
             461.83,323.35 453.57,331.52 451.75,331.50
             427.74,330.43 426.26,343.78 421.50,348.38
             396.18,364.36 371.74,382.35 371.38,387.25 Z
           M 391.00,231.25
           C 380.88,250.00 383.12,292.62 378.38,297.50
             368.25,315.00 365.31,318.50 346.50,328.38
             344.36,328.09 336.00,303.00 337.09,299.82
             335.18,265.27 341.91,261.55 341.45,241.09
             338.27,242.73 330.73,254.36 328.18,260.55
             321.45,274.27 323.09,318.27 322.73,326.00
             321.09,351.55 326.36,339.45 306.75,368.62
             298.73,375.36 290.64,386.18 288.00,392.88
             282.18,411.82 284.27,417.36 286.00,434.38
             287.09,443.64 288.18,442.18 289.02,455.91
             282.09,477.73 284.73,461.36 281.90,455.41
             276.09,442.36 270.91,435.36 258.12,418.38
             244.55,406.34 237.82,394.55 224.75,364.25
             214.73,336.73 222.73,290.36 234.50,276.25
             274.36,227.45 287.27,220.73 274.18,154.36
             262.18,128.00 277.45,118.55 299.45,141.27
             322.55,170.00 324.00,160.82 331.64,197.64
             332.81,194.31 333.38,181.81 332.36,176.73
             329.56,159.19 328.12,161.81 323.09,154.00
             323.09,154.00 293.82,119.82 293.82,119.64
             274.48,102.98 280.81,110.56 282.57,73.29
             283.19,67.25 287.56,51.50 294.21,46.56
             295.72,45.19 299.41,38.44 305.64,46.36
             353.00,100.00 377.19,130.69 398.91,151.64
             420.00,185.45 413.64,191.45 391.00,231.25 Z
           M 331.50,219.38
           C 323.09,240.45 298.88,252.44 294.62,254.88
             285.31,261.56 281.81,263.81 276.38,279.38
             267.07,301.05 266.90,304.12 266.88,316.50
             267.34,320.75 267.83,328.61 269.75,333.25
             268.62,309.75 281.88,279.75 299.25,264.50
             298.36,262.27 332.82,239.18 331.50,219.38 Z
           M 944.00,504.73
           C 920.18,521.09 895.73,529.36 864.00,517.27
             856.80,515.34 842.75,519.88 842.55,529.45
             843.43,534.70 845.25,537.31 848.81,540.16
             848.69,542.22 851.35,560.74 865.45,568.27
             873.94,572.22 875.59,573.25 879.94,573.38
             898.00,574.76 913.37,558.16 909.12,555.50
             904.81,552.50 902.31,549.50 908.00,544.00
             907.87,543.23 921.31,531.74 923.38,543.88
             923.31,549.19 917.94,562.50 909.25,565.62
             891.62,577.44 895.81,574.62 869.00,581.00
             864.31,583.25 884.44,606.19 892.44,608.42
             906.75,612.25 909.00,609.62 911.10,630.27
             911.44,633.38 911.12,643.44 908.36,645.45
             911.61,644.34 915.75,640.60 919.12,635.06
             922.75,630.81 925.38,627.38 931.31,624.69
             944.69,618.50 953.19,608.81 967.70,602.42
             969.30,601.70 982.30,585.13 974.06,575.51
             972.09,573.04 962.70,561.13 966.91,551.95
             966.33,551.93 972.06,546.03 977.82,544.68
             981.69,543.97 985.47,553.06 975.81,555.69
             974.12,555.97 970.81,560.74 973.19,566.44
             974.21,568.52 977.00,569.53 979.88,568.94
             985.34,567.59 989.23,563.58 990.94,557.06
             990.94,557.06 991.54,551.37 991.56,546.97
             991.58,543.11 989.79,538.70 989.06,537.00
             987.70,533.81 985.74,529.09 979.18,526.09
             961.69,519.31 956.12,512.00 951.82,504.82
             950.06,502.94 947.00,502.50 944.00,504.73 Z
           M 661.25,612.56
           C 664.47,610.75 658.50,599.28 645.91,601.03
             644.98,600.69 643.29,599.63 644.44,599.25
             647.04,598.40 655.36,599.03 656.03,599.09
             665.16,599.56 664.96,609.19 664.81,609.94
             664.67,612.30 669.57,611.33 670.19,610.75
             674.54,607.69 685.16,607.12 689.56,616.92
             690.22,619.47 689.69,620.91 687.00,619.10
             683.03,613.87 677.27,611.10 671.89,612.69
             670.71,613.04 670.05,616.43 668.87,616.87
             666.09,617.14 664.58,616.87 663.19,617.31
             659.22,618.24 659.29,613.58 661.25,612.56 Z
           M 686.27,583.09
           C 684.69,582.94 682.19,582.53 685.17,585.78
             701.72,590.76 700.17,603.55 700.28,603.50
             700.28,603.50 697.47,604.47 697.56,606.56
             697.66,608.66 700.84,608.16 701.53,608.06
             702.22,607.97 706.53,606.84 707.09,606.34
             707.66,605.84 707.53,604.81 708.12,604.69
             708.72,604.56 714.39,599.89 723.04,603.42
             731.70,606.95 726.99,602.45 726.80,602.29
             726.61,602.13 719.30,596.29 708.64,602.36
             706.82,603.34 704.05,601.35 704.05,601.35
             702.26,588.57 689.69,584.44 686.27,583.09 Z
           M 758.04,589.57
           C 767.13,586.57 785.52,587.04 787.04,587.13
             788.57,587.22 792.83,589.13 787.74,588.65
             770.81,586.78 762.72,591.88 760.79,591.78
             753.13,591.42 755.78,593.91 755.01,593.83
             751.14,593.39 752.35,598.30 751.09,598.39
             749.83,598.48 745.43,596.96 747.39,595.70
             749.35,594.43 748.50,592.00 748.50,592.00
             747.71,591.01 741.99,588.96 736.91,586.48
             732.59,584.36 728.88,581.80 727.30,580.65
             725.95,580.13 718.15,575.15 727.75,578.88
             732.89,580.16 746.97,586.25 749.94,590.38
             750.64,590.84 754.92,590.84 758.04,589.57 Z
           M 747.60,511.13
           C 758.34,512.62 768.99,520.06 768.81,521.66
             768.81,521.66 768.16,523.62 764.56,524.12
             765.22,524.28 768.38,525.34 768.19,527.03
             769.73,524.69 772.42,523.31 775.13,524.13
             775.16,524.13 800.94,540.35 802.59,544.44
             805.36,539.34 777.44,522.47 777.28,522.50
             777.12,522.53 777.22,520.88 776.72,519.91
             776.51,519.50 774.32,519.97 773.26,519.91
             771.80,519.83 771.53,519.31 771.53,519.31
             767.72,515.59 758.98,510.41 747.26,510.29
             745.87,510.22 745.33,510.86 747.60,511.13 Z
           M 1189.93,638.20
           C 1190.32,638.98 1193.46,639.79 1176.04,636.73
             1177.78,638.73 1175.00,650.31 1171.14,651.02
             1171.14,651.02 1145.69,651.03 1145.69,651.03
             1145.88,651.08 1134.97,636.72 1138.09,613.36
             1138.60,611.52 1140.23,610.68 1143.27,613.18
             1161.73,628.64 1164.82,635.73 1187.55,637.45
             1178.51,625.32 1172.43,611.30 1171.95,609.65
             1169.74,604.26 1173.26,604.91 1176.87,606.35
             1176.87,606.35 1196.29,617.92 1212.11,619.64
             1227.93,621.37 1208.44,616.31 1208.44,616.31
             1203.69,613.61 1207.50,611.44 1212.44,612.81
             1217.69,614.06 1250.00,617.81 1241.45,614.09
             1222.94,604.56 1199.82,578.18 1184.82,554.73
             1187.10,556.50 1190.66,557.00 1193.18,555.36
             1194.36,554.60 1193.62,553.40 1194.27,552.09
             1194.61,551.41 1200.43,554.48 1200.73,553.73
             1201.09,552.81 1191.31,545.51 1190.30,543.83
             1188.48,539.57 1192.57,539.78 1194.97,542.61
             1207.09,556.18 1225.00,555.87 1223.36,555.00
             1213.38,550.12 1189.25,529.25 1177.00,515.45
             1172.69,510.91 1173.31,508.84 1179.00,510.82
             1181.62,511.59 1192.30,513.68 1194.91,512.91
             1197.21,514.35 1185.32,519.82 1183.81,520.06
             1198.48,534.90 1213.78,548.14 1226.34,555.00
             1227.78,556.09 1220.00,556.75 1216.09,556.12
             1212.57,555.75 1204.39,552.66 1202.24,550.93
             1201.97,550.82 1194.70,543.92 1192.40,542.16
             1191.29,541.36 1190.41,542.05 1191.64,542.93
             1192.53,543.58 1204.02,554.61 1202.44,555.03
             1201.12,555.47 1196.99,553.57 1196.03,554.12
             1195.07,554.68 1195.06,556.04 1194.72,556.91
             1194.34,557.89 1189.61,557.26 1189.56,558.22
             1189.49,559.64 1193.43,563.06 1193.48,563.96
             1198.69,571.35 1207.06,583.33 1217.00,592.66
             1222.25,597.58 1231.77,606.04 1236.50,609.44
             1240.63,612.40 1236.69,609.88 1241.75,612.84
             1243.94,614.38 1244.62,614.83 1244.56,614.69
             1247.03,616.86 1245.28,616.78 1231.50,616.81
             1229.34,616.86 1226.95,616.69 1221.06,615.72
             1220.13,615.47 1211.94,614.36 1211.28,614.22
             1208.46,613.59 1208.11,614.43 1209.53,615.25
             1211.21,616.22 1215.28,617.09 1217.51,617.67
             1219.55,619.15 1220.17,619.36 1220.09,619.96
             1219.98,620.58 1217.98,620.64 1216.43,620.96
             1209.08,621.04 1195.02,618.50 1175.76,607.63
             1170.81,604.58 1173.23,608.44 1173.58,608.85
             1178.17,621.17 1188.16,636.04 1189.93,638.20 Z
           M 1210.67,651.02
           C 1210.67,651.02 1225.04,651.02 1225.04,651.02
             1227.33,648.76 1224.42,643.42 1222.11,646.04
             1219.84,648.27 1212.42,651.02 1210.67,651.02 Z
           M 1185.13,650.99
           C 1196.91,647.52 1196.26,642.83 1197.00,641.38
             1198.44,640.78 1199.78,640.22 1201.72,642.19
             1202.23,642.98 1202.73,650.43 1200.66,650.97
             1200.66,650.97 1185.13,650.99 1185.13,650.99 Z
           M 1149.47,621.07
           C 1151.34,621.94 1158.25,628.84 1162.44,631.47
             1159.87,633.25 1145.70,642.26 1142.70,641.57
             1142.50,641.98 1139.39,635.86 1140.96,632.57
             1141.56,631.39 1146.15,630.75 1149.47,621.07 Z
           M 1166.64,633.47
           C 1168.06,634.41 1172.64,636.23 1173.27,636.09
             1170.34,637.91 1163.50,646.34 1162.50,647.25
             1159.64,649.31 1160.64,646.85 1160.88,646.62
             1165.03,642.12 1166.54,634.98 1166.64,633.47 Z
           M 154.44,579.62
           C 163.17,587.09 160.84,623.93 158.56,626.56
             156.50,628.94 157.66,630.12 158.75,631.75
             160.56,636.84 158.06,642.35 157.94,641.94
             158.10,642.18 158.22,644.68 156.22,644.00
             155.97,643.48 156.29,642.02 155.94,640.94
             149.39,640.22 145.72,633.72 146.19,631.00
             148.93,631.36 149.09,630.22 149.31,628.25
             147.93,627.20 149.35,616.74 153.62,604.69
             157.71,602.84 158.35,592.04 154.44,579.62 Z
           M 123.13,466.09
           C 123.62,462.54 139.57,464.48 142.61,466.35
             145.95,467.96 144.00,469.29 142.48,469.00
             138.87,468.80 128.96,468.56 127.61,468.65
             126.22,468.73 122.96,469.27 123.13,466.09 Z
           M 168.80,474.00
           C 168.80,474.00 169.52,478.97 168.72,481.02
             168.06,482.29 169.85,481.62 170.14,481.02
             169.96,481.20 170.77,478.72 171.24,478.18
             171.31,478.28 172.42,477.49 172.50,477.18
             172.49,476.52 173.38,476.68 173.32,476.48
             173.14,476.20 172.94,472.51 173.27,472.00
             171.36,471.78 169.82,472.00 168.80,474.00 Z
           M 151.00,490.38
           C 151.01,491.41 151.81,503.64 150.88,503.94
             149.77,504.26 148.97,504.46 147.31,504.38
             145.77,504.22 146.31,506.13 148.03,506.75
             148.61,506.94 153.92,506.44 154.16,507.03
             154.37,507.93 154.81,515.80 154.47,516.34
             154.28,516.66 154.34,517.29 155.12,516.81
             156.74,515.91 156.66,515.78 156.91,515.03
             157.19,514.06 157.53,508.91 157.09,506.50
             156.83,505.26 154.00,505.27 154.34,503.97
             155.16,501.44 152.44,491.62 152.03,490.50
             151.67,489.57 151.03,489.53 151.00,490.38 Z
           M 153.84,533.12
           C 154.31,532.03 153.58,529.92 152.47,531.16
             152.05,531.70 151.66,531.54 151.10,532.34
             150.18,533.54 149.77,532.98 149.98,531.96
             150.21,530.99 149.45,531.00 148.97,531.97
             147.88,534.03 148.81,536.83 140.84,542.84
             140.57,543.02 140.34,543.05 140.07,543.16
             139.23,543.54 139.69,544.05 140.19,544.09
             146.61,544.27 152.48,537.02 153.84,533.12 Z
           M 146.91,597.09
           C 145.22,596.62 145.72,599.00 146.88,599.12
             147.80,599.32 148.58,599.24 150.03,598.97
             153.29,598.04 150.47,604.58 149.62,605.59
             147.44,608.53 148.69,620.19 143.38,620.97
             139.73,620.49 141.47,623.33 143.22,622.91
             146.56,621.73 146.89,624.02 145.22,628.16
             144.70,628.50 144.99,629.93 145.12,629.84
             145.39,630.53 146.83,630.56 147.25,629.91
             147.44,629.66 147.98,629.38 148.01,628.68
             148.00,624.96 147.60,621.71 148.01,618.80
             148.01,618.80 151.94,606.09 151.94,606.12
             151.94,606.16 153.06,603.25 153.06,603.25
             157.19,600.12 155.62,588.72 154.09,582.09
             153.31,578.94 152.60,581.85 152.97,583.34
             153.50,594.53 154.44,595.41 146.91,597.09 Z
           M 167.64,527.34
           C 166.71,527.40 164.07,525.33 165.41,529.28
             169.76,532.82 167.96,535.23 166.59,534.25
             165.64,533.63 166.16,535.35 166.81,536.09
             168.12,537.78 170.54,536.56 167.62,539.03
             165.09,541.79 170.76,541.84 172.18,539.02
             172.48,538.42 170.47,534.71 171.04,533.29
             171.47,532.42 172.16,531.89 171.21,530.75
             170.49,529.91 168.73,527.11 167.64,527.34 Z
           M 176.12,563.81
           C 176.12,563.81 176.12,576.88 176.12,576.88
             176.12,576.88 176.62,588.44 176.62,588.44
             176.62,588.44 177.88,598.83 177.88,598.83
             177.83,599.42 175.72,601.73 178.56,605.33
             180.38,609.04 177.73,614.19 178.02,615.49
             179.70,620.32 178.60,624.72 177.81,625.50
             176.09,626.63 177.78,627.93 176.75,628.56
             176.06,629.02 176.53,631.39 174.63,631.86
             172.00,632.32 172.88,630.92 173.95,629.61
             174.37,629.01 175.69,627.59 173.69,626.38
             171.90,625.23 172.80,623.94 175.06,621.50
             175.98,620.38 174.68,617.11 175.56,615.31
             176.12,614.62 176.34,613.89 176.69,613.12
             177.67,610.50 176.47,606.22 176.56,605.31
             176.50,602.24 175.69,602.15 175.20,600.93
             175.01,600.40 175.50,598.88 175.38,597.72
             175.28,596.64 175.95,589.73 173.97,587.28
             172.89,586.02 176.11,574.65 174.00,576.78
             173.11,578.04 172.46,578.77 171.00,579.12
             169.37,579.54 169.23,578.72 170.25,577.88
             173.38,575.03 173.91,558.47 173.13,554.78
             172.53,552.20 168.88,553.58 169.00,552.65
             169.28,549.86 169.98,546.80 168.09,546.96
             166.72,547.14 162.80,547.12 162.26,546.91
             161.02,546.41 160.42,545.16 162.00,544.48
             163.07,544.22 170.40,543.24 171.48,544.43
             171.48,544.43 174.09,550.74 174.09,550.74
             174.09,550.74 176.12,563.81 176.12,563.81 Z
           M 178.06,510.75
           C 178.06,510.75 177.16,511.59 177.16,511.59
             176.42,512.25 175.84,512.94 177.91,512.97
             179.75,512.70 179.28,513.23 179.97,511.88
             180.56,510.73 180.36,509.86 180.05,506.53
             179.83,505.02 180.20,494.66 178.65,492.81
             176.99,489.66 177.51,489.19 174.67,488.03
             172.92,487.53 167.55,483.85 166.66,484.09
             166.09,484.42 166.19,485.50 164.72,485.25
             161.59,484.57 160.93,486.93 164.22,487.00
             170.52,487.14 169.39,487.51 173.64,490.42
             175.84,491.80 177.09,493.09 176.59,497.94
             176.04,504.02 180.29,508.80 178.06,510.75 Z" />
</svg>
